<!DOCTYPE svg PUBLIC "-//W3C//DTD SVG 1.1//EN" "http://www.w3.org/Graphics/SVG/1.1/DTD/svg11.dtd">
<!-- Uploaded to: SVG Repo, www.svgrepo.com, Transformed by: SVG Repo Mixer Tools -->
<svg fill="#0d6efd" width="800px" height="800px" viewBox="0 0 512 512" version="1.1" xml:space="preserve" xmlns="http://www.w3.org/2000/svg" xmlns:xlink="http://www.w3.org/1999/xlink" stroke="#0d6efd">
<g id="SVGRepo_bgCarrier" stroke-width="0"/>
<g id="SVGRepo_tracerCarrier" stroke-linecap="round" stroke-linejoin="round"/>
<g id="SVGRepo_iconCarrier"> <g id="_x35_94_x2C__Hospital_x2C__medical_x2C__plus"> <g> <g> <g> <g> <path d="M326.348,490.956h-140c-5.523,0-10-4.478-10-10v-145h-145c-5.523,0-10-4.478-10-10v-140c0-5.523,4.477-10,10-10h145 v-145c0-5.523,4.477-10,10-10h140c5.522,0,10,4.477,10,10v145h145c5.522,0,10,4.477,10,10v140c0,5.522-4.478,10-10,10h-145v145 C336.348,486.479,331.87,490.956,326.348,490.956z M196.347,470.956h120v-145c0-5.522,4.478-10,10-10h145v-120h-145 c-5.522,0-10-4.477-10-10v-145h-120v145c0,5.523-4.477,10-10,10h-145v120h145c5.523,0,10,4.478,10,10V470.956z"/> </g> <g> <path d="M286.348,450.956h-60c-5.523,0-10-4.478-10-10v-140h-150c-5.523,0-10-4.478-10-10v-70c0-5.523,4.477-10,10-10h150v-140 c0-5.523,4.477-10,10-10h60c5.522,0,10,4.477,10,10v140h150c5.522,0,10,4.477,10,10v70c0,5.522-4.478,10-10,10h-150v140 C296.348,446.479,291.87,450.956,286.348,450.956z M236.347,430.956h40v-140c0-5.522,4.478-10,10-10h150v-50h-150 c-5.522,0-10-4.477-10-10v-140h-40v140c0,5.523-4.477,10-10,10h-150v50h150c5.523,0,10,4.478,10,10V430.956z"/> </g> </g> </g> </g> </g> <g id="Layer_1"/> </g>
</svg>